<?xml version="1.0" encoding="UTF-8" standalone="no"?><svg version="1.1" id="Réteg_1" xmlns="http://www.w3.org/2000/svg" xmlns:xlink="http://www.w3.org/1999/xlink" x="0px" y="0px" viewBox="0 0 1132.8 278.2" style="enable-background:new 0 0 1132.8 278.2;" xml:space="preserve"><g><path d="M55.4,64.9H3.1V36.8h138.7v28.1H88.9v155.2H55.4V64.9z"/><path d="M148.2,130.3c0-17.7-0.4-30.8-1.1-42.6h29l1.2,25.2h0.9c6.5-18.7,22-28.2,36.2-28.2c3.3,0,5.2,0.1,7.9,0.7V117	c-2.9-0.6-5.8-0.9-9.8-0.9c-15.9,0-27,10.2-30,25.3c-0.6,3-0.9,6.5-0.9,10.1v68.7h-33.5V130.3z"/><path d="M363,180.4c0,15.7,0.5,28.9,1.1,39.7h-29.3l-1.6-20h-0.8c-5.6,9.3-18.7,23-42.4,23c-24.1,0-46.1-14.5-46.1-57.8V87.7h33.5	v72.1c0,22,7,36.1,24.7,36.1c13.4,0,22.1-9.3,25.6-17.9c1.1-2.9,1.8-6.5,1.8-10.4V87.7H363V180.4z"/><path d="M397.7,189.3c7.4,4.6,21.8,9.7,33.8,9.7c14.7,0,21.3-6.2,21.3-14.9c0-9-5.5-13.5-21.7-19.3c-25.9-8.9-36.7-23-36.6-38.7	c0-23.3,19.4-41.4,50.3-41.4c14.6,0,27.4,3.6,35.1,7.9l-6.6,23.5c-5.6-3.2-16.3-7.6-28-7.6c-11.9,0-18.5,5.9-18.5,14	c0,8.4,6.4,12.4,23.1,18.6c24.1,8.5,35.2,20.8,35.3,40.3c0,24.2-18.8,41.6-53.8,41.6c-16,0-30.6-3.8-40.3-9.3L397.7,189.3z"/><path d="M551,49.8v37.9h31.9v24.9H551v58.4c0,16.2,4.3,24.4,17.1,24.4c5.7,0,10-0.7,13-1.5l0.7,25.5c-5,1.9-13.8,3.4-24.4,3.4	c-12.3,0-22.6-4.2-28.8-10.9c-7.2-7.6-10.5-19.8-10.5-37.1v-62.3h-18.9V87.7h18.9v-30L551,49.8z"/><path d="M608.2,131.6c0-17.2-0.5-31.4-1.1-43.9h29.4l1.6,20.3h0.5c9.7-15,25.2-23.3,45.4-23.3c30.4,0,55.5,26,55.5,67.3	c0,48-30.1,71.1-60.2,71.1c-16.7,0-30.5-7-37.2-17.7h-0.5V274h-33.5V131.6z M641.6,164.7c0,3.2,0.3,6.3,0.9,9.1	c3.4,13.6,15.2,23.4,29.4,23.4c21.2,0,33.7-17.6,33.7-43.6c0-23.5-11.4-42.5-32.9-42.5c-13.8,0-26.5,10.1-29.9,24.8	c-0.7,2.7-1.2,5.6-1.2,8.4V164.7z"/><path d="M802.8,50.6c0,10-7.2,18.1-19.1,18.1c-11.1,0-18.4-8.1-18.3-18.1c0-10.2,7.5-18.1,18.7-18.1	C795.5,32.5,802.7,40.3,802.8,50.6z M767.3,220.1V87.7h33.5v132.4H767.3z"/><path d="M836.9,27h33.5v193.1h-33.5V27z"/><path d="M1032.6,152.6c0,48.7-34.2,70.5-68,70.5c-37.4,0-66.3-25.8-66.3-68.2c0-43.4,28.6-70.2,68.5-70.2	C1006.3,84.7,1032.6,112.5,1032.6,152.6z M932.8,154c0,25.5,12.7,44.7,32.9,44.7c19.2,0,32.5-18.5,32.5-45.2	c0-20.8-9.2-44.6-32.3-44.6C942.4,109,932.8,132,932.8,154z"/><path d="M1098.6,49.8v37.9h31.9v24.9h-31.9v58.4c0,16.2,4.3,24.4,17.1,24.4c5.7,0,10-0.7,13-1.5l0.7,25.5c-5,1.9-13.8,3.4-24.4,3.4	c-12.3,0-22.6-4.2-28.8-10.9c-7.2-7.6-10.5-19.8-10.5-37.1v-62.3h-18.9V87.7h18.9v-30L1098.6,49.8z"/></g></svg>